<mxfile host="app.diagrams.net" modified="2023-05-10T09:41:46.486Z" agent="Mozilla/5.0 (Windows NT 10.0; Win64; x64) AppleWebKit/537.36 (KHTML, like Gecko) Chrome/113.0.0.0 Safari/537.36 Edg/113.0.1774.35" etag="iI98EGtdKPdLw8gyUrzJ" version="21.2.9" type="github">
  <diagram name="Page-1" id="929967ad-93f9-6ef4-fab6-5d389245f69c">
    <mxGraphModel dx="1121" dy="476" grid="1" gridSize="10" guides="1" tooltips="1" connect="1" arrows="1" fold="1" page="1" pageScale="1.5" pageWidth="1169" pageHeight="826" background="none" math="0" shadow="0">
      <root>
        <mxCell id="0" style=";html=1;" />
        <mxCell id="1" style=";html=1;" parent="0" />
        <mxCell id="1672d66443f91eb5-1" value="&lt;p style=&quot;margin: 0px ; margin-top: 4px ; margin-left: 10px ; text-align: left&quot;&gt;&lt;b&gt;req&lt;/b&gt;&amp;nbsp;[modèle] Système de gestion et capture de mesures&lt;/p&gt;" style="html=1;strokeWidth=1;shape=mxgraph.sysml.package;html=1;overflow=fill;whiteSpace=wrap;fillColor=none;gradientColor=none;fontSize=12;align=center;labelX=327.64;" parent="1" vertex="1">
          <mxGeometry x="210" y="295" width="1620" height="785" as="geometry" />
        </mxCell>
        <mxCell id="1672d66443f91eb5-19" style="rounded=0;html=1;endArrow=none;endFill=0;jettySize=auto;orthogonalLoop=1;dashed=1;" parent="1" source="1672d66443f91eb5-11" edge="1">
          <mxGeometry relative="1" as="geometry">
            <mxPoint x="1462.030303030303" y="725" as="targetPoint" />
          </mxGeometry>
        </mxCell>
        <mxCell id="1672d66443f91eb5-11" value="&lt;b&gt;VerifiedBy&lt;/b&gt;&lt;div&gt;&amp;lt;&amp;lt;testCase&amp;gt;&amp;gt; MaxAcceleration&lt;/div&gt;" style="shape=note;size=15;align=left;spacingLeft=10;html=1;whiteSpace=wrap;strokeWidth=1;fontSize=12;" parent="1" vertex="1">
          <mxGeometry x="1294" y="825" width="210" height="60" as="geometry" />
        </mxCell>
        <mxCell id="1672d66443f91eb5-20" style="edgeStyle=none;rounded=0;html=1;dashed=1;endArrow=none;endFill=0;jettySize=auto;orthogonalLoop=1;" parent="1" source="1672d66443f91eb5-12" edge="1">
          <mxGeometry relative="1" as="geometry">
            <mxPoint x="1649" y="605" as="targetPoint" />
          </mxGeometry>
        </mxCell>
        <mxCell id="1672d66443f91eb5-12" value="&lt;b&gt;SatisfiedBy&lt;/b&gt;&lt;div&gt;&amp;lt;&amp;lt;block&amp;gt;&amp;gt; PowerSubsystem&lt;/div&gt;" style="shape=note;size=15;align=left;spacingLeft=10;html=1;whiteSpace=wrap;strokeWidth=1;fontSize=12;" parent="1" vertex="1">
          <mxGeometry x="1544" y="825" width="210" height="60" as="geometry" />
        </mxCell>
        <mxCell id="1672d66443f91eb5-23" value="Cahier des charges" style="text;strokeColor=none;fillColor=none;html=1;fontSize=24;fontStyle=1;verticalAlign=middle;align=center;" parent="1" vertex="1">
          <mxGeometry x="122" y="180" width="1510" height="40" as="geometry" />
        </mxCell>
        <mxCell id="skP8LqyMPYf7C6mUsK04-3" value="&lt;p style=&quot;margin: 0px ; margin-top: 4px ; text-align: center&quot;&gt;&amp;lt;&amp;lt;requirement&amp;gt;&amp;gt;&lt;br&gt;&lt;b&gt;Interface utilisateur&lt;/b&gt;&lt;/p&gt;&lt;hr&gt;&lt;p style=&quot;margin: 0px ; margin-left: 8px ; text-align: left&quot;&gt;Id = &quot;1&quot;&lt;/p&gt;&lt;p style=&quot;margin: 0px ; margin-left: 8px ; text-align: left&quot;&gt;text = &quot;L&#39;interface doit être tactile&quot;&lt;/p&gt;" style="shape=rect;html=1;overflow=fill;whiteSpace=wrap;" vertex="1" parent="1">
          <mxGeometry x="530" y="345" width="204" height="85" as="geometry" />
        </mxCell>
        <mxCell id="skP8LqyMPYf7C6mUsK04-6" value="" style="edgeStyle=none;html=1;startArrow=sysMLPackCont;startSize=12;endArrow=none;rounded=0;entryX=0.5;entryY=0;entryDx=0;entryDy=0;exitX=0.5;exitY=1;exitDx=0;exitDy=0;" edge="1" parent="1" source="skP8LqyMPYf7C6mUsK04-3" target="skP8LqyMPYf7C6mUsK04-7">
          <mxGeometry width="160" relative="1" as="geometry">
            <mxPoint x="664" y="420" as="sourcePoint" />
            <mxPoint x="681" y="500" as="targetPoint" />
          </mxGeometry>
        </mxCell>
        <mxCell id="skP8LqyMPYf7C6mUsK04-7" value="&lt;p style=&quot;margin: 0px ; margin-top: 4px ; text-align: center&quot;&gt;&amp;lt;&amp;lt;requirement&amp;gt;&amp;gt;&lt;br&gt;&lt;b&gt;IHM&lt;/b&gt;&lt;/p&gt;&lt;hr&gt;&lt;p style=&quot;margin: 0px ; margin-left: 8px ; text-align: left&quot;&gt;Id = &quot;R1.2&quot;&lt;/p&gt;&lt;p style=&quot;margin: 0px ; margin-left: 8px ; text-align: left&quot;&gt;text=&quot;Doit être développé en C#&quot;&lt;/p&gt;" style="shape=rect;html=1;overflow=fill;whiteSpace=wrap;" vertex="1" parent="1">
          <mxGeometry x="535" y="500" width="192" height="80" as="geometry" />
        </mxCell>
        <mxCell id="skP8LqyMPYf7C6mUsK04-9" value="&lt;p style=&quot;margin: 0px ; margin-top: 4px ; text-align: center&quot;&gt;&amp;lt;&amp;lt;requirement&amp;gt;&amp;gt;&lt;br&gt;&lt;b&gt;Site internet&lt;/b&gt;&lt;/p&gt;&lt;hr&gt;&lt;p style=&quot;margin: 0px ; margin-left: 8px ; text-align: left&quot;&gt;Id = &quot;2&quot;&lt;/p&gt;&lt;p style=&quot;margin: 0px ; margin-left: 8px ; text-align: left&quot;&gt;text = &quot;Le site doit pouvoir communiquer avce le programme installer sur la Raspberry PI&quot;&lt;/p&gt;" style="shape=rect;html=1;overflow=fill;whiteSpace=wrap;" vertex="1" parent="1">
          <mxGeometry x="1522" y="345" width="204" height="115" as="geometry" />
        </mxCell>
        <mxCell id="skP8LqyMPYf7C6mUsK04-10" value="&lt;p style=&quot;margin: 0px ; margin-top: 4px ; text-align: center&quot;&gt;&amp;lt;&amp;lt;requirement&amp;gt;&amp;gt;&lt;br&gt;&lt;b&gt;RaspBerry&lt;/b&gt;&lt;/p&gt;&lt;hr&gt;&lt;p style=&quot;margin: 0px ; margin-left: 8px ; text-align: left&quot;&gt;Id = &quot;1.1&quot;&lt;/p&gt;&lt;p style=&quot;margin: 0px ; margin-left: 8px ; text-align: left&quot;&gt;text = &quot;La version doit être une RaspBerry PI 3 au minimum&quot;&lt;/p&gt;" style="shape=rect;html=1;overflow=fill;whiteSpace=wrap;" vertex="1" parent="1">
          <mxGeometry x="784" y="340" width="204" height="95" as="geometry" />
        </mxCell>
        <mxCell id="skP8LqyMPYf7C6mUsK04-11" value="" style="edgeStyle=none;html=1;startArrow=sysMLPackCont;startSize=12;endArrow=none;rounded=0;entryX=0;entryY=0.5;entryDx=0;entryDy=0;exitX=1;exitY=0.5;exitDx=0;exitDy=0;" edge="1" parent="1" source="skP8LqyMPYf7C6mUsK04-3" target="skP8LqyMPYf7C6mUsK04-10">
          <mxGeometry width="160" relative="1" as="geometry">
            <mxPoint x="642" y="440" as="sourcePoint" />
            <mxPoint x="636" y="510" as="targetPoint" />
          </mxGeometry>
        </mxCell>
      </root>
    </mxGraphModel>
  </diagram>
</mxfile>
